HIERARCHY
ROOT hip
{
	OFFSET 0.000000 0.000000 0.000000
	CHANNELS 6 Xposition Yposition Zposition Zrotation Yrotation Xrotation 
	JOINT lhipjoint
	{
		OFFSET 0.000000 0.000000 0.000000
		CHANNELS 3 Zrotation Yrotation Xrotation
		JOINT lfemur
		{
			OFFSET 1.363060 -1.794630 0.839290
			CHANNELS 3 Zrotation Yrotation Xrotation
			JOINT ltibia
			{
				OFFSET 2.448110 -6.726130 0.000000
				CHANNELS 3 Zrotation Yrotation Xrotation
				JOINT lfoot
				{
					OFFSET 2.562200 -7.039590 0.000000
					CHANNELS 3 Zrotation Yrotation Xrotation
					JOINT ltoes
					{
						OFFSET 0.157640 -0.433110 2.322550
						CHANNELS 3 Zrotation Yrotation Xrotation
						End Site
						{
							OFFSET 0.000000 0.000000 0.000000
						}
					}
				}
			}
		}
	}
	JOINT rhipjoint
	{
		OFFSET 0.000000 0.000000 0.000000
		CHANNELS 3 Zrotation Yrotation Xrotation
		JOINT rfemur
		{
			OFFSET -1.305520 -1.794630 0.839290
			CHANNELS 3 Zrotation Yrotation Xrotation
			JOINT rtibia
			{
				OFFSET -2.542530 -6.985550 0.000000
				CHANNELS 3 Zrotation Yrotation Xrotation
				JOINT rfoot
				{
					OFFSET -2.568260 -7.056230 0.000000
					CHANNELS 3 Zrotation Yrotation Xrotation
					JOINT rtoes
					{
						OFFSET -0.164730 -0.452590 2.363150
						CHANNELS 3 Zrotation Yrotation Xrotation
						End Site
						{
							OFFSET 0.000000 0.000000 0.000000
						}
					}
				}
			}
		}
	}
	JOINT lowerback
	{
		OFFSET 0.000000 0.000000 0.000000
		CHANNELS 3 Zrotation Yrotation Xrotation
		JOINT upperback
		{
			OFFSET 0.028270 2.035590 -0.193380
			CHANNELS 3 Zrotation Yrotation Xrotation
			JOINT thorax
			{
				OFFSET 0.056720 2.048850 -0.042750
				CHANNELS 3 Zrotation Yrotation Xrotation
				JOINT lowerneck
				{
					OFFSET 0.000000 0.000000 0.000000
					CHANNELS 3 Zrotation Yrotation Xrotation
					JOINT upperneck
					{
						OFFSET -0.054170 1.746240 0.172020
						CHANNELS 3 Zrotation Yrotation Xrotation
						JOINT head
						{
							OFFSET 0.104070 1.761360 -0.123970
							CHANNELS 3 Zrotation Yrotation Xrotation
							End Site
							{
								OFFSET 0.000000 0.000000 0.000000
							}
						}
					}
				}
				JOINT lclavicle
				{
					OFFSET 0.000000 0.000000 0.000000
					CHANNELS 3 Zrotation Yrotation Xrotation
					JOINT lhumerus
					{
						OFFSET 3.362410 1.200890 -0.311210
						CHANNELS 3 Zrotation Yrotation Xrotation
						JOINT lradius
						{
							OFFSET 4.983000 -0.000000 -0.000000
							CHANNELS 3 Zrotation Yrotation Xrotation
							JOINT lwrist
							{
								OFFSET 3.483560 -0.000000 -0.000000
								CHANNELS 3 Zrotation Yrotation Xrotation
								JOINT lhand
								{
									OFFSET 0.000000 0.000000 0.000000
									CHANNELS 3 Zrotation Yrotation Xrotation
									JOINT lfingers
									{
										OFFSET 0.715260 -0.000000 -0.000000
										CHANNELS 3 Zrotation Yrotation Xrotation
										End Site
										{
											OFFSET 0.000000 0.000000 0.000000
										}
									}
								}
								JOINT lthumb
								{
									OFFSET 0.000000 0.000000 0.000000
									CHANNELS 3 Zrotation Yrotation Xrotation
									End Site
									{
										OFFSET 0.000000 0.000000 0.000000
									}
								}
							}
						}
					}
				}
				JOINT rclavicle
				{
					OFFSET 0.000000 0.000000 0.000000
					CHANNELS 3 Zrotation Yrotation Xrotation
					JOINT rhumerus
					{
						OFFSET -3.136600 1.374050 -0.404650
						CHANNELS 3 Zrotation Yrotation Xrotation
						JOINT rradius
						{
							OFFSET -5.241900 -0.000000 -0.000000
							CHANNELS 3 Zrotation Yrotation Xrotation
							JOINT rwrist
							{
								OFFSET -3.444170 -0.000000 -0.000000
								CHANNELS 3 Zrotation Yrotation Xrotation
								JOINT rhand
								{
									OFFSET 0.000000 0.000000 0.000000
									CHANNELS 3 Zrotation Yrotation Xrotation
									JOINT rfingers
									{
										OFFSET -0.622530 -0.000000 -0.000000
										CHANNELS 3 Zrotation Yrotation Xrotation
										End Site
										{
											OFFSET 0.000000 0.000000 0.000000
										}
									}
								}
								JOINT rthumb
								{
									OFFSET 0.000000 0.000000 0.000000
									CHANNELS 3 Zrotation Yrotation Xrotation
									End Site
									{
										OFFSET 0.000000 0.000000 0.000000
									}
								}
							}
						}
					}
				}
			}
		}
	}
}
MOTION
Frames: 10
Frame Time: 0.008333
-14.323578 16.768510 2.207162 -2.366699 26.711098 3.460266 4.015545 3.097081 0.278027 3.942043 -0.225335 -9.269546 0.382579 3.312622 11.037757 -1.532854 7.582300 2.502359 1.924900 -8.708000 -24.885900 -6.307179 -3.052186 -1.365103 11.059394 12.261158 -4.790783 -4.157463 -9.034062 28.112530 -0.519108 1.036670 -12.305569 -4.327700 12.584100 -37.830900 7.200006 -0.947979 2.367381 1.275244 -1.515522 -3.719651 -1.275465 -0.383525 -1.383216 2.555992 10.202408 0.166116 2.105959 13.968388 10.489523 -4.789200 7.376300 -2.675300 5.690759 -8.853259 3.837334 -78.242578 -3.200614 23.231336 -1.567072 -17.165307 -1.269315 2.021726 0.286603 8.257716 21.514596 -15.591389 -5.742500 -7.125000 0.000000 0.000000 -5.481300 12.642600 4.168300 0.469430 11.053603 6.021934 71.491188 -8.665411 37.675013 -8.409246 23.164946 -2.226425 -1.061734 -3.104297 -3.161064 -20.221526 5.405455 -2.996300 7.125000 0.000000 0.000000 5.645200 -20.786600 3.290100 
-14.165613 16.772670 2.136353 -2.378010 26.958619 3.399714 3.979259 3.058905 0.314189 3.561029 0.090450 -10.259705 0.462275 3.730658 12.243859 -1.238654 6.660309 3.384703 1.962700 -8.788000 -25.134500 -6.254867 -2.954521 -1.499529 10.587366 12.262691 -3.743205 -3.977813 -8.643056 26.863284 -0.417606 0.012712 -11.859810 -4.376600 12.645400 -38.055000 7.108594 -1.029033 2.692038 1.283781 -1.582901 -3.731794 -1.237681 -0.428766 -1.490182 2.733174 10.174825 -0.079519 2.219425 13.903992 10.413162 -4.767600 7.324500 -2.585200 5.734745 -8.893472 3.806220 -78.377205 -3.227919 24.358422 -1.367466 -17.502909 -1.290325 2.027199 0.350049 7.713884 21.566017 -15.402222 -5.710300 -7.125000 0.000000 0.000000 -5.441300 12.785200 4.121300 0.503693 11.072396 6.011336 71.285591 -8.656918 37.614825 -8.363032 23.045106 -2.232981 -1.079752 -3.101552 -3.214366 -20.399504 5.512554 -3.060100 7.125000 0.000000 0.000000 5.531400 -20.663500 3.238600 
-14.005132 16.784761 2.062933 -2.393275 27.194762 3.345202 3.942298 3.018499 0.348044 3.151950 0.618844 -11.346581 0.541278 4.135939 13.424455 -0.883787 5.535511 4.438005 1.989500 -8.844200 -25.309100 -6.198383 -2.854751 -1.633050 10.137959 12.313460 -2.656946 -3.800310 -8.232566 25.569030 -0.300003 -1.151450 -11.385053 -4.420500 12.699800 -38.255000 7.064312 -1.109632 3.003521 1.290378 -1.652528 -3.742176 -1.246403 -0.475092 -1.602238 2.893867 10.137799 -0.267135 2.321251 13.826266 10.291839 -4.746800 7.259300 -2.546000 5.781401 -8.944243 3.785223 -78.566416 -3.219123 25.530616 -1.149591 -17.857710 -1.313768 2.033566 0.416390 7.189403 21.669993 -15.186453 -5.686200 -7.125000 0.000000 0.000000 -5.365900 12.944800 4.045700 0.496793 11.087281 5.986168 71.259047 -8.558074 36.665608 -8.042210 22.755300 -2.209255 -1.149693 -3.054196 -2.267426 -20.485907 5.740763 -3.140900 7.125000 0.000000 0.000000 5.482900 -20.448600 3.236500 
-13.843298 16.801496 1.988351 -2.387921 27.425298 3.293498 3.904291 2.975342 0.380703 2.692661 1.148300 -12.396579 0.618822 4.515982 14.550630 -0.520393 4.355221 5.449388 2.070700 -9.011800 -25.832300 -6.137210 -2.751702 -1.761527 9.689946 12.458200 -1.531022 -3.631939 -7.814889 24.269037 -0.163344 -2.486682 -10.925332 -4.452800 12.739700 -38.401700 7.013462 -1.189593 3.297971 1.297412 -1.724298 -3.754491 -1.253514 -0.520749 -1.743037 3.014742 10.112463 -0.347933 2.452853 13.738965 10.141935 -4.711000 7.183900 -2.568900 5.817563 -9.025393 3.783784 -78.753862 -3.074548 27.101069 -0.788436 -18.372823 -1.349219 2.034091 0.519346 6.345525 21.829093 -14.839319 -5.643700 -7.125000 0.000000 0.000000 -5.244900 13.209000 3.924500 0.459450 11.098822 5.951097 71.371484 -8.430371 34.926603 -7.492628 22.298149 -2.163859 -1.263929 -2.965658 -0.411155 -20.549421 6.053699 -3.239800 7.125000 0.000000 0.000000 5.450900 -20.168900 3.251800 
-13.680496 16.827711 1.914931 -2.395793 27.617099 3.241481 3.870154 2.930344 0.407541 2.224808 1.447747 -13.269113 0.700647 4.870426 15.614031 -0.228759 3.371629 6.129848 2.065200 -9.000600 -25.797300 -6.076812 -2.649150 -1.882353 9.292928 12.711704 -0.401324 -3.476487 -7.396716 22.984735 0.001952 -4.009234 -10.406577 -4.320700 12.575300 -37.798800 6.987722 -1.256655 3.545049 1.304411 -1.785400 -3.759056 -1.256916 -0.558934 -1.808791 3.052334 10.074708 -0.476411 2.601641 13.627283 9.998125 -4.639800 7.097000 -2.606500 5.814762 -9.095046 3.797960 -78.834393 -2.841878 29.482309 -0.111025 -19.195468 -1.402273 2.007614 0.684736 4.696268 21.854533 -14.374631 -5.534400 -7.125000 0.000000 0.000000 -5.196800 13.579400 3.847600 0.438190 11.083558 5.918223 71.356413 -8.287105 33.613325 -7.032518 21.890382 -2.125239 -1.357638 -2.883629 1.005832 -20.630506 6.360995 -3.339900 7.125000 0.000000 0.000000 5.411000 -19.892700 3.261400 
-13.519048 16.860407 1.843155 -2.411711 27.808501 3.211475 3.840053 2.887506 0.430917 1.746889 1.615460 -14.034864 0.780179 5.184819 16.565688 0.000825 2.574604 6.627401 2.051500 -8.972500 -25.709400 -6.014382 -2.552857 -1.988623 8.935901 13.013549 0.665717 -3.339918 -6.999440 21.777389 0.189300 -5.633707 -9.869560 -4.137400 12.341000 -36.949100 6.953106 -1.308527 3.750524 1.305689 -1.830852 -3.764868 -1.297885 -0.589688 -1.870672 3.114770 10.033903 -0.588158 2.770255 13.505433 9.839522 -4.566300 7.000900 -2.661000 5.788644 -9.168411 3.818076 -78.801356 -2.578987 32.096994 0.675727 -20.055294 -1.459429 1.964401 0.862488 2.849168 21.833979 -13.874092 -5.402000 -7.125000 0.000000 0.000000 -5.174500 13.986500 3.786200 0.427874 11.066579 5.887377 71.316086 -8.199096 32.784916 -6.699318 21.586039 -2.094274 -1.411479 -2.831641 1.929864 -20.683793 6.473099 -3.376600 7.125000 0.000000 0.000000 5.380400 -19.802900 3.253700 
-13.358277 16.895714 1.773604 -2.408671 27.957968 3.206379 3.808806 2.851984 0.449997 1.218628 1.866345 -14.728913 0.851531 5.457305 17.401907 0.211420 1.829216 7.114816 2.049400 -8.968300 -25.696100 -5.956579 -2.464082 -2.074245 8.614673 13.413043 1.638565 -3.230733 -6.644655 20.711527 0.409101 -7.459726 -9.378254 -3.935000 12.073400 -35.992300 6.822412 -1.357085 3.935511 1.312969 -1.875125 -3.773601 -1.222880 -0.615756 -1.948682 3.126320 10.001696 -0.656684 2.920733 13.391388 9.679193 -4.503300 6.911300 -2.725600 5.779223 -9.247318 3.832414 -78.853428 -2.297613 34.381944 1.382487 -20.852284 -1.512328 1.917200 1.018937 1.308014 21.737442 -13.406475 -5.255300 -7.125000 0.000000 0.000000 -5.205800 14.378200 3.765900 0.426540 11.050494 5.863417 71.235527 -8.120651 32.051348 -6.387288 21.257722 -2.054094 -1.454799 -2.775217 2.856589 -20.650706 6.536596 -3.379400 7.125000 0.000000 0.000000 5.405000 -19.777100 3.271800 
-13.200312 16.932376 1.708986 -2.424491 28.059608 3.190875 3.784366 2.824771 0.458047 0.688124 2.199759 -15.309027 0.913292 5.687918 18.118692 0.404119 1.135242 7.590372 2.043300 -8.955800 -25.657100 -5.915211 -2.387801 -2.132486 8.426704 13.986341 2.497005 -3.163371 -6.367231 19.894120 0.671805 -9.546644 -9.030156 -3.745100 11.813300 -35.074600 6.649938 -1.395561 4.097797 1.320543 -1.909807 -3.776680 -1.122545 -0.635295 -1.987760 3.160431 9.975084 -0.757963 3.070296 13.291222 9.536089 -4.450200 6.830800 -2.767200 5.779989 -9.304361 3.843290 -78.892303 -2.065651 36.416018 2.000063 -21.538762 -1.555335 1.867988 1.149188 0.045439 21.591614 -12.987272 -5.106600 -7.125000 0.000000 0.000000 -5.272500 14.741300 3.773700 0.430253 11.026649 5.836952 71.144485 -7.961744 31.471938 -6.044415 20.892376 -2.006579 -1.491848 -2.719030 3.685156 -20.620698 6.548623 -3.364400 7.125000 0.000000 0.000000 5.426900 -19.807300 3.281500 
-13.045539 16.971457 1.646690 -2.437134 28.134918 3.199499 3.766962 2.808519 0.459226 0.143023 2.536768 -15.806930 0.962187 5.874951 18.699578 0.564527 0.555664 8.050897 2.021400 -8.910400 -25.515600 -5.885738 -2.335120 -2.157010 8.293390 14.501442 3.040925 -3.134461 -6.193943 19.386811 0.985017 -11.843570 -8.624609 -3.610900 11.623800 -34.413700 6.438262 -1.424726 4.237096 1.327020 -1.934937 -3.780534 -1.012093 -0.649695 -2.038755 3.261092 9.937491 -0.814793 3.170204 13.198587 9.400266 -4.447000 6.756300 -2.799700 5.794617 -9.345696 3.850218 -78.926900 -1.882399 38.145524 2.504183 -22.100268 -1.584483 1.820924 1.247115 -1.011899 21.321911 -12.707707 -4.963400 -7.125000 0.000000 0.000000 -5.430900 14.997700 3.858100 0.443648 11.016406 5.815468 71.060822 -7.789215 31.052555 -5.723663 20.541052 -1.957332 -1.520053 -2.667650 4.344061 -20.552095 6.541836 -3.335600 7.125000 0.000000 0.000000 5.476500 -19.860000 3.305300 
-12.895409 17.016147 1.585941 -2.472942 28.153526 3.237222 3.758546 2.803324 0.453400 -0.408306 2.950827 -16.271960 0.994511 6.018829 19.143458 0.716030 0.010762 8.549384 2.027900 -8.924000 -25.558000 -5.879628 -2.311037 -2.141273 8.236955 14.997438 3.232355 -3.145697 -6.134464 19.218389 1.311128 -14.106399 -8.425924 -3.256900 11.099800 -32.617100 6.225405 -1.435304 4.347786 1.333492 -1.939737 -3.788061 -0.875142 -0.650769 -2.120138 3.358632 9.909843 -0.818727 3.248476 13.122691 9.266328 -4.459000 6.691700 -2.838800 5.824946 -9.386732 3.851110 -79.011647 -1.738338 39.312346 2.811476 -22.482101 -1.596213 1.787618 1.298729 -1.445731 21.011923 -12.546616 -4.841600 -7.125000 0.000000 0.000000 -5.622200 15.161400 3.975600 0.451133 11.012476 5.793164 70.981036 -7.569104 30.701198 -5.362750 20.150081 -1.897831 -1.545673 -2.611398 5.039123 -20.428170 6.500438 -3.283300 7.125000 0.000000 0.000000 5.563600 -19.958500 3.346000 
